<?xml version="1.0" encoding="UTF-8" standalone="no"?>
<svg
   xmlns:dc="http://purl.org/dc/elements/1.1/"
   xmlns:cc="http://creativecommons.org/ns#"
   xmlns:rdf="http://www.w3.org/1999/02/22-rdf-syntax-ns#"
   xmlns:svg="http://www.w3.org/2000/svg"
   xmlns="http://www.w3.org/2000/svg"
   xmlns:sodipodi="http://sodipodi.sourceforge.net/DTD/sodipodi-0.dtd"
   xmlns:inkscape="http://www.inkscape.org/namespaces/inkscape"
   width="128"
   height="128"
   viewBox="0 0 128 128"
   version="1.1"
   id="svg35"
   sodipodi:docname="Deepin_logo.svg"
   inkscape:version="0.92.2 2405546, 2018-03-11">
  <metadata
     id="metadata39">
    <rdf:RDF>
      <cc:Work
         rdf:about="">
        <dc:format>image/svg+xml</dc:format>
        <dc:type
           rdf:resource="http://purl.org/dc/dcmitype/StillImage" />
        <dc:title>ISO安装器-256px</dc:title>
      </cc:Work>
    </rdf:RDF>
  </metadata>
  <sodipodi:namedview
     pagecolor="#ffffff"
     bordercolor="#666666"
     borderopacity="1"
     objecttolerance="10"
     gridtolerance="10"
     guidetolerance="10"
     inkscape:pageopacity="0"
     inkscape:pageshadow="2"
     inkscape:window-width="1920"
     inkscape:window-height="1001"
     id="namedview37"
     showgrid="false"
     inkscape:zoom="6.3125"
     inkscape:cx="64"
     inkscape:cy="64"
     inkscape:window-x="0"
     inkscape:window-y="0"
     inkscape:window-maximized="1"
     inkscape:current-layer="ISO安装器-256px" />
  <!-- Generator: Sketch 39.1 (31720) - http://www.bohemiancoding.com/sketch -->
  <title
     id="title2">ISO安装器-256px</title>
  <desc
     id="desc4">Created with Sketch.</desc>
  <defs
     id="defs11">
    <linearGradient
       x1="0.49999547"
       y1="0.006944444"
       x2="0.49999547"
       y2="1"
       id="linearGradient-1">
      <stop
         stop-color="#FFDD89"
         offset="0%"
         id="stop6" />
      <stop
         stop-color="#FFAF32"
         offset="100%"
         id="stop8" />
    </linearGradient>
  </defs>
  <g
     id="g33"
     transform="matrix(1.3697996,0,0,1.3328198,-46.249615,-137.6641)"
     style="fill:none;fill-rule:evenodd;stroke:none;stroke-width:1">
    <g
       id="ISO安装器-256px">
      <path
         d="m 92.095096,107.98755 c -23.32014,-6.82001 -47.748539,6.5505 -54.571331,29.87053 -6.820042,23.31728 6.553291,47.74831 29.873431,54.56831 23.31464,6.82001 47.748554,-6.5505 54.565844,-29.86778 6.82004,-23.32278 -6.55329,-47.75106 -29.867944,-54.57106 z"
         id="path11793"
         inkscape:connector-curvature="0"
         style="fill:#eff4f8;stroke-width:0.5" />
      <path
         d="m 91.814386,112.92233 c -22.79014,-6.66501 -46.663354,6.40163 -53.331082,29.19165 -6.665041,22.78735 6.404352,46.66312 29.194492,53.32813 22.78477,6.66501 46.663354,-6.40163 53.325714,-29.18897 6.66504,-22.79272 -6.40436,-46.66581 -29.189124,-53.33081 z"
         id="path15"
         inkscape:connector-curvature="0"
         style="fill:#ffffff;stroke-width:0.5" />
      <path
         d="m 92.740266,114.40977 c -5.46122,-1.99229 -11.05544,-2.52972 -16.48409,-2.02486 -6.29452,0.49671 -9.36714,2.44557 -9.18528,2.09271 -10.29272,3.67515 -18.994846,11.57916 -23.025619,22.66432 -7.176676,19.74103 2.988472,41.57207 22.699899,48.75951 19.71958,7.18743 41.518324,-2.99115 48.695004,-22.73218 7.17939,-19.74103 -2.98576,-41.56935 -22.699914,-48.7595 z m -24.69764,67.92239 c -2.10089,-0.76815 -4.06335,-1.74529 -5.9118,-2.86087 9.18528,0.70572 21.17174,-1.41143 29.255,-8.97615 0,0 15.409224,-12.31202 4.26149,-32.51719 0,0 1.79688,8.14286 -0.49401,14.84173 0,0 -2.18503,9.10916 -11.89689,11.75559 -14.30449,3.89772 -30.60401,-6.11529 -37.41697,-10.96573 -0.513008,-4.98615 -0.057,-10.13787 1.76974,-15.16474 2.708896,-7.44801 7.80097,-13.2593 14.0222,-17.16245 -1.5553,10.88159 -0.32572,20.90003 1.44131,25.09632 2.37232,5.62673 6.49538,12.18988 14.53793,13.03131 8.04254,0.84414 12.47775,-6.68258 12.47775,-6.68258 4.12577,-6.27001 4.77178,-15.27331 4.70935,-15.49046 -0.0624,-0.21985 -1.0993,-0.81428 -1.0993,-0.81428 -2.77675,11.23716 -7.35582,14.99102 -7.35582,14.99102 -7.2201,6.9703 -12.33389,2.13615 -12.33389,2.13615 -5.49651,-5.90358 -1.6476,-15.4986 -1.6476,-15.4986 2.15246,-6.53601 8.42527,-16.10117 15.53408,-20.96517 1.18345,0.29314 2.37504,0.475 3.54491,0.90114 4.30221,1.56886 8.06969,3.93301 11.256314,6.8373 -5.197934,1.89729 -13.590634,5.90901 -13.590634,5.90901 -13.3029,5.60229 -14.20134,14.0763 -14.20134,14.0763 -1.37617,8.73459 5.5535,5.03772 5.5535,5.03772 7.13325,-3.47428 10.63744,-14.30159 10.63744,-14.30159 -2.22574,-0.42343 -3.9792,0.25243 -3.9792,0.25243 -2.84732,7.0273 -8.65598,9.91802 -8.65598,9.91802 -2.28546,1.21057 -2.81747,-0.92829 -2.81747,-0.92829 -0.38543,-1.60143 1.65303,-1.87558 1.65303,-1.87558 3.1649,-1.22957 5.18978,-4.55457 5.64851,-5.91443 0.456,-1.36258 1.30559,-1.46843 1.30559,-1.46843 4.33749,-1.38429 8.29226,-1.69372 8.29226,-1.69372 5.38522,-0.66229 13.628634,1.90543 13.628634,1.90543 1.84845,0.74372 3.62091,1.30015 5.19521,1.74529 3.02105,7.54844 3.49877,16.14459 0.50487,24.38518 -6.45467,17.76503 -26.079244,26.92847 -43.828214,20.46032 z"
         id="path11795"
         inkscape:connector-curvature="0"
         style="opacity:0.8;fill:#00b7ff;stroke-width:0.5" />
      <g
         id="Page-1"
         transform="translate(80,168)"
         style="fill:#b08043" />
    </g>
  </g>
</svg>
